<!-- <?xml version="1.0" encoding="UTF-8"?> -->
<svg width="113px" height="50px" viewBox="0 0 113 50" version="1.1" xmlns="http://www.w3.org/2000/svg" xmlns:xlink="http://www.w3.org/1999/xlink">
    <!-- Generator: Sketch 49.2 (51160) - http://www.bohemiancoding.com/sketch -->
    <title>LOGO</title>
    <desc>Created with Sketch.</desc>
    <defs></defs>
    <g id="Page-1" stroke="none" stroke-width="1" fill="none" fill-rule="evenodd">
        <g id="首页" transform="translate(-185.000000, -30.000000)">
            <g id="Group-7" transform="translate(185.000000, 30.000000)">
                <g id="LOGO">
                    <g id="Group-6">
                        <polygon id="Fill-1" fill="#9552ED" points="10.031382 34.1817294 12.8914752 34.1817294 12.8914752 23.3969572 10.031382 23.3969572"></polygon>
                        <polygon id="Fill-2" fill="#9552ED" points="17.2454845 34.1817294 20.1055776 34.1817294 20.1055776 19.5575407 17.2454845 19.5575407"></polygon>
                        <polygon id="Fill-3" fill="#9552ED" points="24.459587 34.1817294 27.3196801 34.1817294 27.3196801 15.6144881 24.459587 15.6144881"></polygon>
                        <polygon id="Fill-4" fill="#00D1F4" points="41.3477879 26.7374206 37.4306885 26.7374206 37.4306885 19.5090725 29.8965363 19.5090725 29.8965363 15.6141741 41.3477879 15.6141741"></polygon>
                        <polygon id="Fill-5" fill="#00D1F4" points="37.5190531 16.2556703 28.002137 26.3338335 21.5358699 22.0456766 8.02078913 34.1819038 13.9957519 34.1819038 21.6127239 27.2581827 28.3404351 31.7700119 40.4251183 18.8675065"></polygon>
                        <polygon id="Fill-7" fill="#00D1F4" points="21.3696335 0.348942704 0 12.6233512 0 37.1725173 21.3815652 49.4472748 34.6902981 41.8068253 30.2745248 39.2714076 21.387882 44.3732989 4.41963354 34.6318654 4.41963354 15.188778 21.3833199 5.42291856 30.2731211 10.523763 34.686087 7.9890432"></polygon>
                    </g>
                    <g id="Group-31" transform="translate(52.545000, 15.414893)" fill="#FFFFFF">
                        <path d="M52.6125543,5.22932514 C52.2528494,5.85951567 51.597309,6.27440854 50.8119239,6.27440854 C49.6134922,6.27440854 48.7137034,5.31167562 48.7137034,4.08549096 C48.7137034,2.8593063 49.6594643,1.90773955 50.8119239,1.90773955 C51.5706382,1.90773955 52.2381102,2.3215856 52.6065885,2.95282295 C52.6065885,2.95282295 53.7871227,2.33344965 54.3229953,2.04557192 C53.584986,0.84171959 52.2251258,0.0970758601 50.8119239,0.0970758601 C48.7144053,0.0970758601 46.7319922,1.73605974 46.7319922,4.08549096 C46.7319922,6.43492219 48.6108804,8.08507223 50.8119239,8.08507223 C52.2889953,8.08507223 53.6193773,7.34182427 54.3359798,6.14355503 C53.7980016,5.85463047 52.6125543,5.22932514 52.6125543,5.22932514" id="Fill-9"></path>
                        <polygon id="Fill-11" points="0.348475155 7.9817154 2.44599379 7.9817154 2.44599379 0.188778003 0.348475155 0.188778003"></polygon>
                        <polygon id="Fill-13" points="26.8200938 10.9635355 28.9179634 10.9635355 33.5460503 18.7564729 31.4481807 18.7564729"></polygon>
                        <polygon id="Fill-14" points="28.5555562 18.7566474 26.4576866 18.7566474 31.0861245 10.96371 33.1836432 10.96371"></polygon>
                        <polygon id="Fill-15" points="12.131673 0.18891758 17.4567102 0.18891758 17.4567102 1.94235467 14.2295425 1.94235467 14.2295425 3.59145788 17.2942289 3.59145788 17.2942289 5.34489497 14.2295425 5.34489497 14.2295425 7.98185498 12.131673 7.98185498"></polygon>
                        <polygon id="Fill-16" points="18.422404 0.18891758 20.5199227 0.18891758 20.5199227 6.22876684 23.3266742 6.22876684 23.3266742 7.98185498 18.422404 7.98185498"></polygon>
                        <polygon id="Fill-17" points="54.9710609 0.18891758 60.2960981 0.18891758 60.2960981 1.94235467 57.0692814 1.94235467 57.0692814 3.23553632 59.809005 3.23553632 59.809005 4.89720148 57.0692814 4.89720148 57.0692814 6.22876684 60.2960981 6.22876684 60.2960981 7.98185498 54.9710609 7.98185498"></polygon>
                        <polygon id="Fill-18" points="32.1906469 0.18891758 37.5156842 0.18891758 37.5156842 1.94235467 34.2888674 1.94235467 34.2888674 3.23553632 37.028591 3.23553632 37.028591 4.89720148 34.2888674 4.89720148 34.2888674 6.22876684 37.5156842 6.22876684 37.5156842 7.98185498 32.1906469 7.98185498"></polygon>
                        <path d="M3.97405559,0.0628445809 C3.84736925,-0.0400935166 3.81262702,0.016784144 3.81262702,0.0858747994 L3.81262702,7.98209924 L5.78345932,7.98209924 L5.78345932,4.09697118 L10.7052761,8.11923372 C10.8319624,8.22252076 10.8667047,8.18832438 10.8667047,8.0962035 L10.8667047,5.83749738 L8.60775745,3.86073697 L3.97405559,0.0628445809 Z" id="Fill-19"></path>
                        <polygon id="Fill-20" points="10.8667398 0.18891758 8.89555652 0.18891758 8.89555652 3.32556354 10.8667398 5.05038733"></polygon>
                        <polygon id="Fill-21" points="0.348475155 18.7591597 2.44599379 18.7591597 2.44599379 10.9662223 0.348475155 10.9662223"></polygon>
                        <path d="M3.97405559,10.8400098 C3.84736925,10.7370717 3.81262702,10.7939493 3.81262702,10.86304 L3.81262702,18.7592644 L5.78345932,18.7592644 L5.78345932,14.8741364 L10.7052761,18.8963989 C10.8319624,18.999686 10.8667047,18.9654896 10.8667047,18.8733687 L10.8667047,16.6146626 L8.60775745,14.6379022 L3.97405559,10.8400098 Z" id="Fill-22"></path>
                        <polygon id="Fill-23" points="10.8667398 10.9660828 8.89555652 10.9660828 8.89555652 14.1027287 10.8667398 15.8275525"></polygon>
                        <polygon id="Fill-24" points="45.8427314 0.18891758 43.8718991 0.18891758 43.8718991 3.32800614 45.8427314 5.05248098"></polygon>
                        <path d="M38.9505385,0.0628445809 C38.8238522,-0.0400935166 38.7891099,0.016784144 38.7891099,0.0858747994 L38.7891099,7.98209924 L40.7599422,7.98209924 L40.7599422,4.09697118 L45.681759,8.11923372 C45.8084453,8.22252076 45.8428366,8.18832438 45.8428366,8.0962035 L45.8428366,5.83993998 L43.5410758,3.82549375 L38.9505385,0.0628445809 Z" id="Fill-25"></path>
                        <path d="M28.9047683,0.18891758 L28.9047683,5.1522786 C28.9047683,5.7856096 28.3025696,6.30902366 27.6024609,6.30902366 C26.9020012,6.30902366 26.2998025,5.7856096 26.2998025,5.1522786 L26.2998025,0.18891758 L24.2026348,0.18891758 L24.2026348,5.1522786 C24.2026348,6.42626841 25.3361441,8.09630819 27.6024609,8.09630819 C29.8687776,8.09630819 31.0026379,6.42626841 31.0026379,5.1522786 L31.0026379,0.18891758 L28.9047683,0.18891758 Z" id="Fill-26"></path>
                        <polygon id="Fill-27" points="20.1935211 10.85313 25.5182075 10.85313 25.5182075 12.6065671 22.2913907 12.6065671 22.2913907 13.8997488 25.0311143 13.8997488 25.0311143 15.5617629 22.2913907 15.5617629 22.2913907 16.8929793 25.5182075 16.8929793 25.5182075 18.6460674 20.1935211 18.6460674"></polygon>
                        <polygon id="Fill-28" points="12.1317081 18.7626492 14.2295776 18.7626492 14.2295776 10.9648266 12.1317081 10.9648266"></polygon>
                        <path d="M18.9323429,14.7766767 C18.9323429,12.4272454 17.0534547,10.9672692 14.8520602,10.9672692 C14.7920509,10.9672692 14.0192994,10.9648266 13.9599919,10.9672692 L13.9599919,12.801312 C14.0200012,12.7964268 14.7902963,12.7779329 14.8520602,12.7779329 C16.0508429,12.7779329 16.9509826,13.550492 16.9509826,14.7766767 C16.9509826,14.7955196 16.9481752,14.9103217 16.9457186,15.0073278 C16.918346,16.2007118 16.0318925,16.9516365 14.8520602,16.9516365 C14.7902963,16.9516365 14.0200012,16.9331426 13.9599919,16.9282574 L13.9599919,18.7623002 C14.0192994,18.7647428 14.7920509,18.7623002 14.8520602,18.7623002 C16.9944981,18.7623002 18.8347839,17.3776956 18.9323429,15.1388792 C18.9326938,15.1270151 18.9323429,14.7913323 18.9323429,14.7766767" id="Fill-30"></path>
                    </g>
                </g>
            </g>
        </g>
    </g>
</svg>